<svg width="358" height="282" viewBox="0 0 358 282" fill="none" xmlns="http://www.w3.org/2000/svg">
<g filter="url(#filter0_d)">
<path d="M337 76.7636L290.295 5H177.192H57.1508L7 76.7636L177.192 266L337 76.7636Z" fill="#B21E1E"/>
<path d="M337 76.7636L290.295 5H177.192H57.1508L7 76.7636L177.192 266L337 76.7636Z" stroke="black" stroke-width="10"/>
</g>
<path d="M296 77.3346L265.776 33H174.148H80.6065L50 77.3346L174.148 217L296 77.3346Z" fill="#F3F804" stroke="black" stroke-width="8"/>
<g filter="url(#filter1_d)">
<path d="M90.5866 40.3784H76.0748L80.2756 33H113.118V40.3784H107.39V78.193L136.032 44.0677H124.575V33H174.22V44.0677H150.925L129.157 70.8145C129.157 70.8145 145.961 76.3484 150.925 92.4887C155.89 108.629 178.421 180.569 184.913 184.719C191.406 188.87 192.551 184.719 192.551 184.719L197.134 191.175L174.22 217C170.516 195.79 137.992 76.9857 117.701 86.9549L107.39 108.629C103.046 127.466 110.814 128.661 117.701 144.599L115.409 150.594L65 92.4887L71.4921 86.9549L90.5866 108.629V40.3784Z" fill="#B21E1E"/>
<path d="M259 57.4411V33H222.339C216.2 34.6883 210.118 37.1504 202.098 44.0677C182.744 60.7616 165.592 96.7791 165.437 121.08C165.303 142.044 174.372 165.903 187.205 179.185C203.808 196.37 233.635 147.347 240.524 138.143L252.153 98.9623C252.153 98.9623 237.318 93.1761 228.188 97.805C219.059 102.434 219.629 111.692 219.629 111.692L238.459 110.535C232.466 125.009 217.076 174.288 197.134 163.967C186.441 158.434 184.913 150.594 184.913 130.764C184.913 110.935 197.37 46.8346 231.504 46.8346C235.323 46.8346 239.005 46.0212 240.669 46.8346C242.334 47.6479 241.505 54.4873 240.669 64.3584C240.669 64.3584 244.106 69.8922 255.181 64.3584L259 57.4411Z" fill="#B21E1E"/>
<path d="M90.5866 40.3784H76.0748L80.2756 33H113.118V40.3784H107.39V78.193L136.032 44.0677H124.575V33H174.22V44.0677H150.925L129.157 70.8145C129.157 70.8145 145.961 76.3484 150.925 92.4887C155.89 108.629 178.421 180.569 184.913 184.719C191.406 188.87 192.551 184.719 192.551 184.719L197.134 191.175L174.22 217C170.516 195.79 137.992 76.9857 117.701 86.9549L107.39 108.629C103.046 127.466 110.814 128.661 117.701 144.599L115.409 150.594L65 92.4887L71.4921 86.9549L90.5866 108.629V40.3784Z" stroke="black" stroke-width="5"/>
<path d="M259 57.4411V33H222.339C216.2 34.6883 210.118 37.1504 202.098 44.0677C182.744 60.7616 165.592 96.7791 165.437 121.08C165.303 142.044 174.372 165.903 187.205 179.185C203.808 196.37 233.635 147.347 240.524 138.143L252.153 98.9623C252.153 98.9623 237.318 93.1761 228.188 97.805C219.059 102.434 219.629 111.692 219.629 111.692L238.459 110.535C232.466 125.009 217.076 174.288 197.134 163.967C186.441 158.434 184.913 150.594 184.913 130.764C184.913 110.935 197.37 46.8346 231.504 46.8346C235.323 46.8346 239.005 46.0212 240.669 46.8346C242.334 47.6479 241.505 54.4873 240.669 64.3584C240.669 64.3584 244.106 69.8922 255.181 64.3584L259 57.4411Z" stroke="black" stroke-width="5"/>
</g>
<g filter="url(#filter2_d)">
<path d="M198.797 215.022C197.377 216.052 196.173 216.616 195.182 216.714C194.191 216.802 193.328 216.445 192.592 215.642C191.76 214.734 191.371 213.595 191.425 212.225C191.48 210.844 191.986 209.528 192.944 208.278C193.597 207.425 194.319 206.819 195.109 206.46C195.904 206.095 196.687 206 197.46 206.175C198.236 206.344 198.917 206.748 199.503 207.387L198.242 209.032C197.603 208.336 196.92 208.028 196.191 208.11C195.457 208.186 194.757 208.659 194.091 209.529C193.472 210.336 193.141 211.133 193.098 211.921C193.054 212.697 193.3 213.378 193.838 213.964C194.268 214.434 194.797 214.619 195.424 214.52C196.05 214.41 196.88 213.975 197.916 213.216C198.955 212.45 199.847 211.941 200.591 211.689C201.335 211.425 202.012 211.371 202.622 211.525C203.237 211.674 203.813 212.041 204.35 212.627C205.206 213.561 205.593 214.703 205.51 216.053C205.422 217.397 204.875 218.725 203.869 220.038C203.215 220.891 202.468 221.537 201.626 221.975C200.779 222.408 199.959 222.562 199.166 222.438C198.377 222.308 197.675 221.908 197.061 221.237L198.321 219.591C198.96 220.288 199.677 220.564 200.472 220.419C201.267 220.263 202.019 219.722 202.729 218.795C203.391 217.931 203.748 217.105 203.801 216.317C203.854 215.53 203.621 214.853 203.103 214.288C202.586 213.724 202.023 213.501 201.416 213.621C200.804 213.736 199.931 214.203 198.797 215.022ZM200.344 200.915L202.245 202.989L203.565 201.267L204.603 202.399L203.283 204.122L208.154 209.435C208.469 209.778 208.765 209.96 209.042 209.981C209.314 209.996 209.592 209.819 209.875 209.45C210.015 209.268 210.177 208.986 210.363 208.604L211.452 209.792C211.231 210.313 210.97 210.769 210.669 211.161C210.129 211.866 209.541 212.2 208.903 212.162C208.266 212.124 207.613 211.741 206.946 211.013L202.075 205.699L200.788 207.379L199.75 206.247L201.037 204.567L199.135 202.492L200.344 200.915ZM208.386 204.21C207.617 203.37 207.06 202.439 206.715 201.416C206.375 200.388 206.28 199.376 206.429 198.38C206.583 197.379 206.972 196.473 207.594 195.66C208.557 194.403 209.704 193.792 211.037 193.827C212.374 193.856 213.657 194.541 214.887 195.881L214.981 195.984C215.745 196.818 216.3 197.741 216.644 198.753C216.987 199.754 217.083 200.761 216.929 201.773C216.78 202.779 216.388 203.697 215.752 204.527C214.794 205.778 213.646 206.389 212.309 206.36C210.976 206.325 209.7 205.643 208.481 204.313L208.386 204.21ZM209.761 202.798C210.632 203.748 211.512 204.275 212.401 204.378C213.294 204.476 214.046 204.127 214.656 203.331C215.27 202.53 215.491 201.603 215.321 200.55C215.145 199.492 214.576 198.438 213.613 197.388C212.751 196.448 211.869 195.93 210.967 195.832C210.064 195.724 209.307 196.067 208.698 196.863C208.101 197.642 207.884 198.558 208.045 199.611C208.207 200.664 208.779 201.726 209.761 202.798ZM222.468 186.212C223.663 187.516 224.38 188.888 224.618 190.327C224.857 191.767 224.556 193.035 223.715 194.132C222.857 195.252 221.88 195.803 220.783 195.786L224.565 199.912L223.356 201.489L212.482 189.627L213.586 188.186L214.516 189.059C214.331 187.678 214.676 186.416 215.551 185.273C216.401 184.165 217.427 183.677 218.631 183.811C219.838 183.939 221.076 184.694 222.344 186.077L222.468 186.212ZM221.107 187.623C220.221 186.657 219.352 186.116 218.499 186C217.646 185.884 216.924 186.212 216.332 186.985C215.6 187.941 215.412 189.05 215.767 190.314L219.52 194.408C220.598 194.718 221.509 194.386 222.253 193.414C222.833 192.658 223.038 191.781 222.87 190.783C222.701 189.775 222.113 188.721 221.107 187.623Z" fill="#F3F804"/>
<path d="M198.797 215.022L198.677 214.79L198.676 214.79L198.797 215.022ZM195.182 216.714L195.202 216.984L195.204 216.984L195.182 216.714ZM191.425 212.225L191.653 212.242L191.653 212.242L191.425 212.225ZM195.109 206.46L195.193 206.713L195.194 206.713L195.109 206.46ZM197.46 206.175L197.421 206.441L197.422 206.441L197.46 206.175ZM199.503 207.387L199.672 207.571L199.824 207.372L199.655 207.188L199.503 207.387ZM198.242 209.032L198.09 209.231L198.259 209.415L198.411 209.217L198.242 209.032ZM196.191 208.11L196.214 208.379L196.216 208.379L196.191 208.11ZM193.098 211.921L193.325 211.943L193.325 211.943L193.098 211.921ZM195.424 214.52L195.457 214.789L195.46 214.788L195.424 214.52ZM197.916 213.216L198.037 213.447L198.037 213.447L197.916 213.216ZM200.591 211.689L200.657 211.949L200.659 211.948L200.591 211.689ZM202.622 211.525L202.578 211.79L202.58 211.79L202.622 211.525ZM205.51 216.053L205.736 216.078L205.736 216.077L205.51 216.053ZM201.626 221.975L201.718 222.224L201.719 222.223L201.626 221.975ZM199.166 222.438L199.138 222.706L199.139 222.706L199.166 222.438ZM197.061 221.237L196.892 221.053L196.74 221.251L196.909 221.436L197.061 221.237ZM198.321 219.591L198.473 219.393L198.305 219.209L198.152 219.407L198.321 219.591ZM200.472 220.419L200.51 220.687L200.513 220.686L200.472 220.419ZM201.416 213.621L201.455 213.889L201.456 213.889L201.416 213.621ZM198.676 214.79C197.269 215.811 196.099 216.351 195.16 216.445L195.204 216.984C196.246 216.881 197.486 216.292 198.917 215.254L198.676 214.79ZM195.162 216.444C194.233 216.526 193.432 216.195 192.744 215.444L192.44 215.841C193.223 216.695 194.149 217.078 195.202 216.984L195.162 216.444ZM192.744 215.444C191.964 214.593 191.601 213.534 191.653 212.242L191.198 212.208C191.141 213.657 191.555 214.876 192.44 215.841L192.744 215.444ZM191.653 212.242C191.704 210.937 192.181 209.678 193.113 208.462L192.775 208.093C191.79 209.379 191.256 210.751 191.198 212.208L191.653 212.242ZM193.113 208.462C193.746 207.635 194.44 207.055 195.193 206.713L195.025 206.207C194.198 206.583 193.448 207.215 192.775 208.093L193.113 208.462ZM195.194 206.713C195.953 206.365 196.694 206.277 197.421 206.441L197.499 205.909C196.681 205.724 195.855 205.826 195.025 206.207L195.194 206.713ZM197.422 206.441C198.156 206.601 198.798 206.981 199.351 207.585L199.655 207.188C199.037 206.514 198.317 206.087 197.497 205.909L197.422 206.441ZM199.334 207.202L198.073 208.848L198.411 209.217L199.672 207.571L199.334 207.202ZM198.394 208.834C197.716 208.095 196.97 207.75 196.166 207.84L196.216 208.379C196.869 208.306 197.49 208.577 198.09 209.231L198.394 208.834ZM196.168 207.84C195.361 207.924 194.613 208.443 193.922 209.344L194.26 209.713C194.902 208.875 195.554 208.448 196.214 208.379L196.168 207.84ZM193.922 209.344C193.283 210.179 192.919 211.031 192.871 211.899L193.325 211.943C193.364 211.236 193.662 210.493 194.26 209.713L193.922 209.344ZM192.871 211.898C192.822 212.767 193.103 213.527 193.686 214.163L193.99 213.766C193.498 213.23 193.286 212.627 193.325 211.943L192.871 211.898ZM193.686 214.163C194.172 214.693 194.77 214.897 195.457 214.789L195.39 214.252C194.824 214.342 194.365 214.175 193.99 213.766L193.686 214.163ZM195.46 214.788C196.133 214.67 196.996 214.211 198.037 213.447L197.794 212.985C196.765 213.74 195.967 214.151 195.387 214.252L195.46 214.788ZM198.037 213.447C199.068 212.688 199.94 212.192 200.657 211.949L200.526 211.428C199.754 211.69 198.842 212.213 197.794 212.985L198.037 213.447ZM200.659 211.948C201.376 211.695 202.014 211.647 202.578 211.79L202.666 211.26C202.01 211.094 201.294 211.156 200.523 211.429L200.659 211.948ZM202.58 211.79C203.148 211.928 203.687 212.268 204.198 212.825L204.502 212.428C203.939 211.814 203.326 211.42 202.664 211.26L202.58 211.79ZM204.198 212.825C205.003 213.704 205.361 214.764 205.283 216.028L205.736 216.077C205.825 214.642 205.41 213.419 204.502 212.428L204.198 212.825ZM205.283 216.027C205.2 217.295 204.683 218.57 203.7 219.854L204.038 220.223C205.066 218.88 205.643 217.498 205.736 216.078L205.283 216.027ZM203.7 219.854C203.066 220.681 202.344 221.304 201.532 221.726L201.719 222.223C202.592 221.769 203.364 221.101 204.038 220.223L203.7 219.854ZM201.533 221.726C200.718 222.143 199.938 222.286 199.192 222.169L199.139 222.706C199.979 222.838 200.84 222.673 201.718 222.224L201.533 221.726ZM199.193 222.169C198.453 222.047 197.794 221.673 197.213 221.039L196.909 221.436C197.556 222.142 198.301 222.568 199.138 222.706L199.193 222.169ZM197.229 221.421L198.49 219.776L198.152 219.407L196.892 221.053L197.229 221.421ZM198.169 219.79C198.856 220.539 199.641 220.845 200.51 220.687L200.434 220.151C199.713 220.283 199.065 220.038 198.473 219.393L198.169 219.79ZM200.513 220.686C201.37 220.518 202.165 219.936 202.898 218.98L202.56 218.611C201.873 219.507 201.163 220.008 200.432 220.152L200.513 220.686ZM202.898 218.98C203.578 218.092 203.969 217.213 204.028 216.343L203.574 216.292C203.527 216.997 203.204 217.77 202.56 218.611L202.898 218.98ZM204.028 216.343C204.086 215.467 203.823 214.709 203.255 214.09L202.951 214.487C203.42 214.998 203.621 215.593 203.574 216.292L204.028 216.343ZM203.255 214.09C202.693 213.476 202.061 213.219 201.375 213.354L201.456 213.889C201.985 213.784 202.478 213.971 202.951 214.487L203.255 214.09ZM201.377 213.354C200.718 213.478 199.813 213.969 198.677 214.79L198.917 215.255C200.048 214.438 200.889 213.995 201.455 213.889L201.377 213.354ZM200.344 200.915L200.496 200.716L200.327 200.532L200.175 200.731L200.344 200.915ZM202.245 202.989L202.093 203.188L202.262 203.372L202.414 203.174L202.245 202.989ZM203.565 201.267L203.717 201.069L203.548 200.884L203.396 201.083L203.565 201.267ZM204.603 202.399L204.772 202.584L204.924 202.385L204.755 202.201L204.603 202.399ZM203.283 204.122L203.114 203.938L202.962 204.136L203.131 204.32L203.283 204.122ZM209.042 209.981L209.031 210.251L209.035 210.251L209.042 209.981ZM210.363 208.604L210.515 208.406L210.306 208.178L210.166 208.466L210.363 208.604ZM211.452 209.792L211.655 209.918L211.733 209.734L211.604 209.594L211.452 209.792ZM202.075 205.699L202.227 205.501L202.058 205.317L201.906 205.515L202.075 205.699ZM200.788 207.379L200.636 207.578L200.805 207.762L200.957 207.564L200.788 207.379ZM199.75 206.247L199.581 206.063L199.429 206.261L199.598 206.445L199.75 206.247ZM201.037 204.567L201.206 204.751L201.358 204.553L201.189 204.369L201.037 204.567ZM199.135 202.492L198.966 202.308L198.814 202.507L198.983 202.691L199.135 202.492ZM200.192 201.113L202.093 203.188L202.397 202.791L200.496 200.716L200.192 201.113ZM202.414 203.174L203.734 201.451L203.396 201.083L202.076 202.805L202.414 203.174ZM203.413 201.465L204.451 202.598L204.755 202.201L203.717 201.069L203.413 201.465ZM204.434 202.215L203.114 203.938L203.452 204.306L204.772 202.584L204.434 202.215ZM203.131 204.32L208.002 209.634L208.306 209.237L203.435 203.923L203.131 204.32ZM208.002 209.634C208.336 209.998 208.68 210.225 209.031 210.251L209.053 209.711C208.849 209.695 208.601 209.559 208.306 209.237L208.002 209.634ZM209.035 210.251C209.404 210.272 209.741 210.03 210.044 209.634L209.706 209.266C209.443 209.609 209.225 209.72 209.049 209.71L209.035 210.251ZM210.044 209.634C210.199 209.431 210.371 209.13 210.56 208.743L210.166 208.466C209.983 208.842 209.83 209.104 209.706 209.266L210.044 209.634ZM210.211 208.803L211.3 209.991L211.604 209.594L210.515 208.406L210.211 208.803ZM211.249 209.667C211.036 210.168 210.786 210.604 210.5 210.977L210.838 211.346C211.154 210.934 211.425 210.457 211.655 209.918L211.249 209.667ZM210.5 210.977C209.992 211.64 209.464 211.924 208.911 211.892L208.895 212.433C209.617 212.475 210.266 212.092 210.838 211.346L210.5 210.977ZM208.911 211.892C208.345 211.858 207.742 211.517 207.098 210.814L206.793 211.211C207.485 211.966 208.186 212.391 208.895 212.433L208.911 211.892ZM207.098 210.814L202.227 205.501L201.923 205.898L206.793 211.211L207.098 210.814ZM201.906 205.515L200.619 207.195L200.957 207.564L202.244 205.884L201.906 205.515ZM200.94 207.181L199.902 206.048L199.598 206.445L200.636 207.578L200.94 207.181ZM199.919 206.431L201.206 204.751L200.868 204.383L199.581 206.063L199.919 206.431ZM201.189 204.369L199.287 202.294L198.983 202.691L200.885 204.766L201.189 204.369ZM199.304 202.677L200.512 201.099L200.175 200.731L198.966 202.308L199.304 202.677ZM206.715 201.416L206.504 201.512L206.505 201.514L206.715 201.416ZM206.429 198.38L206.206 198.328L206.206 198.329L206.429 198.38ZM211.037 193.827L211.036 194.098L211.037 194.098L211.037 193.827ZM216.644 198.753L216.433 198.852L216.434 198.853L216.644 198.753ZM216.929 201.773L216.706 201.721L216.705 201.722L216.929 201.773ZM212.309 206.36L212.308 206.631L212.308 206.631L212.309 206.36ZM212.401 204.378L212.383 204.648L212.384 204.648L212.401 204.378ZM215.321 200.55L215.544 200.503L215.544 200.502L215.321 200.55ZM210.967 195.832L210.947 196.101L210.95 196.102L210.967 195.832ZM208.538 204.011C207.791 203.196 207.256 202.299 206.926 201.319L206.505 201.514C206.864 202.58 207.442 203.544 208.234 204.408L208.538 204.011ZM206.927 201.32C206.601 200.335 206.512 199.374 206.653 198.432L206.206 198.329C206.048 199.378 206.15 200.441 206.504 201.512L206.927 201.32ZM206.653 198.433C206.799 197.486 207.166 196.623 207.763 195.844L207.425 195.475C206.777 196.322 206.368 197.273 206.206 198.328L206.653 198.433ZM207.763 195.844C208.686 194.639 209.774 194.065 211.036 194.098L211.039 193.556C209.635 193.52 208.427 194.167 207.425 195.475L207.763 195.844ZM211.037 194.098C212.305 194.125 213.537 194.773 214.734 196.08L215.039 195.683C213.778 194.308 212.443 193.586 211.038 193.556L211.037 194.098ZM214.734 196.08L214.829 196.183L215.133 195.786L215.039 195.683L214.734 196.08ZM214.829 196.183C215.571 196.993 216.104 197.883 216.433 198.852L216.854 198.655C216.496 197.6 215.92 196.644 215.133 195.786L214.829 196.183ZM216.434 198.853C216.762 199.808 216.851 200.762 216.706 201.721L217.153 201.825C217.314 200.76 217.213 199.701 216.854 198.654L216.434 198.853ZM216.705 201.722C216.564 202.673 216.193 203.546 215.583 204.343L215.921 204.711C216.582 203.848 216.996 202.885 217.153 201.824L216.705 201.722ZM215.583 204.343C214.665 205.542 213.577 206.116 212.31 206.089L212.308 206.631C213.715 206.661 214.923 206.014 215.921 204.711L215.583 204.343ZM212.31 206.089C211.045 206.056 209.821 205.41 208.633 204.114L208.329 204.511C209.58 205.876 210.907 206.594 212.308 206.631L212.31 206.089ZM208.633 204.114L208.538 204.011L208.234 204.408L208.329 204.511L208.633 204.114ZM209.609 202.996C210.506 203.974 211.43 204.537 212.383 204.648L212.42 204.109C211.594 204.013 210.759 203.522 209.913 202.599L209.609 202.996ZM212.384 204.648C213.349 204.754 214.169 204.372 214.825 203.516L214.487 203.147C213.923 203.883 213.24 204.199 212.418 204.109L212.384 204.648ZM214.825 203.516C215.485 202.654 215.729 201.641 215.544 200.503L215.098 200.598C215.254 201.564 215.055 202.406 214.487 203.147L214.825 203.516ZM215.544 200.502C215.355 199.366 214.749 198.263 213.765 197.189L213.461 197.586C214.402 198.614 214.935 199.619 215.098 200.599L215.544 200.502ZM213.765 197.189C212.876 196.22 211.949 195.667 210.984 195.562L210.95 196.102C211.79 196.192 212.626 196.676 213.461 197.586L213.765 197.189ZM210.986 195.563C210.012 195.446 209.186 195.821 208.529 196.679L208.867 197.047C209.429 196.313 210.116 196.002 210.947 196.101L210.986 195.563ZM208.529 196.679C207.885 197.52 207.647 198.52 207.822 199.656L208.269 199.566C208.12 198.596 208.317 197.764 208.867 197.047L208.529 196.679ZM207.822 199.656C207.996 200.79 208.606 201.902 209.609 202.996L209.913 202.599C208.951 201.55 208.418 200.538 208.269 199.566L207.822 199.656ZM224.618 190.327L224.395 190.376L224.618 190.327ZM220.783 195.786L220.782 195.515L220.192 195.506L220.631 195.984L220.783 195.786ZM224.565 199.912L224.734 200.096L224.886 199.897L224.717 199.713L224.565 199.912ZM223.356 201.489L223.204 201.688L223.373 201.872L223.525 201.673L223.356 201.489ZM212.482 189.627L212.313 189.443L212.161 189.641L212.33 189.826L212.482 189.627ZM213.586 188.186L213.725 187.974L213.559 187.818L213.417 188.002L213.586 188.186ZM214.516 189.059L214.377 189.271L214.832 189.698L214.741 189.021L214.516 189.059ZM218.631 183.811L218.613 184.08L218.614 184.081L218.631 183.811ZM215.767 190.314L215.552 190.397L215.571 190.464L215.615 190.513L215.767 190.314ZM219.52 194.408L219.368 194.607L219.412 194.655L219.47 194.671L219.52 194.408ZM222.87 190.783L222.647 190.832L222.647 190.833L222.87 190.783ZM222.316 186.41C223.486 187.687 224.169 189.009 224.395 190.376L224.841 190.279C224.591 188.766 223.84 187.345 222.62 186.014L222.316 186.41ZM224.395 190.376C224.62 191.729 224.34 192.912 223.546 193.948L223.884 194.317C224.771 193.159 225.094 191.804 224.841 190.279L224.395 190.376ZM223.546 193.948C222.723 195.022 221.804 195.531 220.782 195.515L220.783 196.057C221.956 196.075 222.991 195.482 223.884 194.317L223.546 193.948ZM220.631 195.984L224.413 200.11L224.717 199.713L220.935 195.587L220.631 195.984ZM224.396 199.727L223.187 201.305L223.525 201.673L224.734 200.096L224.396 199.727ZM223.508 201.291L212.634 189.429L212.33 189.826L223.204 201.688L223.508 201.291ZM212.651 189.811L213.755 188.37L213.417 188.002L212.313 189.443L212.651 189.811ZM213.447 188.398L214.377 189.271L214.655 188.848L213.725 187.974L213.447 188.398ZM214.741 189.021C214.568 187.73 214.885 186.548 215.72 185.458L215.382 185.089C214.467 186.284 214.094 187.625 214.292 189.098L214.741 189.021ZM215.72 185.458C216.525 184.407 217.484 183.955 218.613 184.08L218.648 183.541C217.37 183.399 216.276 183.922 215.382 185.089L215.72 185.458ZM218.614 184.081C219.755 184.201 220.947 184.917 222.192 186.276L222.496 185.879C221.206 184.471 219.922 183.676 218.647 183.541L218.614 184.081ZM222.192 186.276L222.316 186.41L222.62 186.014L222.496 185.879L222.192 186.276ZM221.259 187.425C220.351 186.434 219.438 185.856 218.521 185.731L218.477 186.269C219.266 186.376 220.091 186.88 220.954 187.822L221.259 187.425ZM218.521 185.731C217.594 185.605 216.802 185.967 216.163 186.801L216.501 187.17C217.046 186.457 217.699 186.163 218.477 186.269L218.521 185.731ZM216.163 186.801C215.375 187.829 215.171 189.041 215.552 190.397L215.982 190.232C215.653 189.059 215.825 188.052 216.501 187.17L216.163 186.801ZM215.615 190.513L219.368 194.607L219.672 194.21L215.919 190.116L215.615 190.513ZM219.47 194.671C220.042 194.836 220.581 194.833 221.081 194.651C221.581 194.469 222.028 194.114 222.422 193.598L222.085 193.23C221.735 193.687 221.354 193.983 220.942 194.133C220.531 194.282 220.075 194.29 219.57 194.145L219.47 194.671ZM222.422 193.598C223.049 192.781 223.275 191.818 223.093 190.734L222.647 190.833C222.801 191.745 222.617 192.535 222.085 193.23L222.422 193.598ZM223.093 190.734C222.91 189.644 222.282 188.541 221.259 187.425L220.954 187.822C221.944 188.901 222.492 189.906 222.647 190.832L223.093 190.734Z" fill="black"/>
</g>
<g filter="url(#filter3_d)">
<path d="M132.855 191.992C131.884 193.15 130.893 193.965 129.881 194.437C128.874 194.904 127.894 195.042 126.941 194.85L127.329 198.67L125.59 198.588L125.154 194.052C124.739 193.756 124.348 193.388 123.98 192.949C123.188 192.005 122.68 190.938 122.454 189.747C122.233 188.551 122.311 187.322 122.688 186.059C123.074 184.797 123.736 183.595 124.674 182.453L125.398 181.588C126.364 180.436 127.385 179.618 128.462 179.134C129.538 178.651 130.578 178.541 131.581 178.804C132.593 179.067 133.495 179.671 134.287 180.614C135.097 181.58 135.613 182.661 135.834 183.858C136.059 185.059 135.97 186.297 135.566 187.57C135.166 188.838 134.476 190.057 133.496 191.226L132.855 191.992ZM132.178 189.637C133.36 188.227 134.033 186.857 134.199 185.529C134.373 184.201 134.023 183.016 133.149 181.973C132.316 180.98 131.338 180.577 130.215 180.764C129.102 180.951 127.973 181.711 126.827 183.045L126.089 183.926C124.939 185.298 124.273 186.665 124.089 188.026C123.91 189.393 124.248 190.586 125.105 191.607C125.961 192.628 126.934 193.047 128.024 192.866C129.119 192.679 130.255 191.899 131.433 190.527L132.178 189.637ZM135.35 204.413C134.268 204.518 133.247 203.997 132.285 202.85C131.489 201.901 131.111 200.902 131.152 199.854C131.203 198.806 131.678 197.738 132.58 196.651L137.437 190.854L138.714 192.377L133.892 198.133C132.76 199.483 132.655 200.707 133.575 201.804C134.551 202.967 135.563 203.307 136.612 202.824L142.041 196.344L143.319 197.867L135.854 206.776L134.639 205.327L135.35 204.413ZM139.188 210.751L137.911 209.228L145.376 200.319L146.653 201.842L139.188 210.751ZM147.252 197.832C147.459 197.585 147.696 197.451 147.963 197.429C148.234 197.412 148.494 197.552 148.743 197.849C148.991 198.145 149.109 198.455 149.095 198.779C149.081 199.102 148.971 199.388 148.764 199.635C148.557 199.882 148.32 200.011 148.053 200.022C147.787 200.033 147.529 199.89 147.28 199.594C147.032 199.298 146.912 198.991 146.921 198.672C146.935 198.359 147.045 198.079 147.252 197.832ZM146.78 211.556L145.144 211.597L142.523 214.726L141.246 213.204L151.842 200.556L153.119 202.079L146.71 209.728L148.215 209.563L152.997 209.405L154.551 211.257L148.526 211.514L147.424 220.57L145.926 218.784L146.78 211.556Z" fill="#F3F804"/>
<path d="M129.881 194.437L129.963 194.69L129.964 194.69L129.881 194.437ZM126.941 194.85L126.979 194.583L126.679 194.522L126.716 194.882L126.941 194.85ZM127.329 198.67L127.32 198.94L127.586 198.953L127.554 198.637L127.329 198.67ZM125.59 198.588L125.364 198.619L125.386 198.849L125.581 198.858L125.59 198.588ZM125.154 194.052L125.379 194.021L125.366 193.888L125.27 193.82L125.154 194.052ZM122.454 189.747L122.232 189.806L122.232 189.807L122.454 189.747ZM122.688 186.059L122.474 185.966L122.474 185.968L122.688 186.059ZM124.674 182.453L124.513 182.261L124.512 182.263L124.674 182.453ZM131.581 178.804L131.532 179.069L131.533 179.069L131.581 178.804ZM135.834 183.858L135.612 183.916L135.612 183.917L135.834 183.858ZM135.566 187.57L135.353 187.474L135.353 187.475L135.566 187.57ZM134.199 185.529L133.974 185.487L133.974 185.489L134.199 185.529ZM130.215 180.764L130.184 180.495L130.184 180.496L130.215 180.764ZM126.827 183.045L126.669 182.851L126.667 182.854L126.827 183.045ZM124.089 188.026L123.865 187.983L123.865 187.984L124.089 188.026ZM128.024 192.866L128.055 193.134L128.056 193.134L128.024 192.866ZM131.433 190.527L131.591 190.721L131.593 190.718L131.433 190.527ZM132.694 191.8C131.74 192.939 130.774 193.73 129.798 194.185L129.964 194.69C131.012 194.201 132.028 193.361 133.015 192.183L132.694 191.8ZM129.799 194.185C128.825 194.636 127.886 194.765 126.979 194.583L126.903 195.117C127.901 195.318 128.922 195.172 129.963 194.69L129.799 194.185ZM126.716 194.882L127.103 198.702L127.554 198.637L127.167 194.817L126.716 194.882ZM127.338 198.399L125.599 198.317L125.581 198.858L127.32 198.94L127.338 198.399ZM125.815 198.557L125.379 194.021L124.928 194.083L125.364 198.619L125.815 198.557ZM125.27 193.82C124.873 193.536 124.497 193.182 124.141 192.757L123.819 193.141C124.2 193.594 124.605 193.976 125.037 194.284L125.27 193.82ZM124.141 192.757C123.376 191.846 122.891 190.824 122.675 189.688L122.232 189.807C122.469 191.052 123 192.164 123.819 193.141L124.141 192.757ZM122.676 189.689C122.465 188.547 122.538 187.369 122.902 186.15L122.474 185.968C122.084 187.274 122.001 188.555 122.232 189.806L122.676 189.689ZM122.901 186.152C123.274 184.932 123.916 183.762 124.836 182.643L124.512 182.263C123.555 183.427 122.873 184.661 122.474 185.966L122.901 186.152ZM124.835 182.644L125.559 181.78L125.238 181.397L124.513 182.261L124.835 182.644ZM125.559 181.78C126.506 180.649 127.501 179.855 128.542 179.388L128.382 178.881C127.27 179.38 126.222 180.222 125.238 181.397L125.559 181.78ZM128.542 179.388C129.582 178.921 130.577 178.818 131.532 179.069L131.63 178.54C130.579 178.264 129.494 178.381 128.382 178.881L128.542 179.388ZM131.533 179.069C132.499 179.32 133.363 179.896 134.126 180.806L134.447 180.423C133.628 179.446 132.688 178.815 131.63 178.539L131.533 179.069ZM134.126 180.806C134.909 181.74 135.401 182.776 135.612 183.916L136.056 183.799C135.824 182.547 135.285 181.421 134.447 180.423L134.126 180.806ZM135.612 183.917C135.827 185.061 135.744 186.245 135.353 187.474L135.778 187.666C136.197 186.349 136.292 185.057 136.055 183.798L135.612 183.917ZM135.353 187.475C134.967 188.7 134.297 189.887 133.336 191.034L133.657 191.417C134.655 190.227 135.365 188.977 135.778 187.666L135.353 187.475ZM133.336 191.034L132.694 191.8L133.015 192.183L133.657 191.417L133.336 191.034ZM132.338 189.829C133.539 188.396 134.248 186.976 134.423 185.569L133.974 185.489C133.819 186.738 133.181 188.057 132.017 189.446L132.338 189.829ZM134.423 185.571C134.61 184.148 134.229 182.878 133.309 181.781L132.988 182.165C133.817 183.153 134.136 184.254 133.974 185.487L134.423 185.571ZM133.309 181.781C132.428 180.731 131.38 180.296 130.184 180.495L130.247 181.032C131.296 180.858 132.203 181.229 132.988 182.165L133.309 181.781ZM130.184 180.496C129.006 180.693 127.834 181.493 126.669 182.851L126.986 183.239C128.111 181.929 129.198 181.208 130.247 181.032L130.184 180.496ZM126.667 182.854L125.929 183.735L126.25 184.118L126.988 183.237L126.667 182.854ZM125.929 183.735C124.758 185.131 124.059 186.547 123.865 187.983L124.313 188.069C124.487 186.783 125.121 185.466 126.25 184.118L125.929 183.735ZM123.865 187.984C123.674 189.441 124.039 190.72 124.944 191.799L125.265 191.415C124.458 190.453 124.146 189.345 124.313 188.068L123.865 187.984ZM124.944 191.799C125.845 192.872 126.887 193.328 128.055 193.134L127.993 192.597C126.981 192.766 126.077 192.383 125.265 191.415L124.944 191.799ZM128.056 193.134C129.217 192.936 130.395 192.114 131.591 190.721L131.274 190.333C130.115 191.684 129.021 192.422 127.992 192.597L128.056 193.134ZM131.593 190.718L132.338 189.829L132.017 189.446L131.272 190.335L131.593 190.718ZM135.35 204.413L135.516 204.598L135.913 204.087L135.331 204.143L135.35 204.413ZM131.152 199.854L130.926 199.838L130.925 199.841L131.152 199.854ZM132.58 196.651L132.419 196.46L132.418 196.461L132.58 196.651ZM137.437 190.854L137.597 190.663L137.437 190.471L137.276 190.663L137.437 190.854ZM138.714 192.377L138.875 192.569L139.035 192.377L138.874 192.185L138.714 192.377ZM136.612 202.824L136.694 203.077L136.739 203.056L136.773 203.016L136.612 202.824ZM142.041 196.344L142.202 196.152L142.041 195.961L141.881 196.152L142.041 196.344ZM143.319 197.867L143.479 198.058L143.64 197.866L143.479 197.675L143.319 197.867ZM135.854 206.776L135.693 206.967L135.854 207.159L136.015 206.967L135.854 206.776ZM134.639 205.327L134.472 205.143L134.324 205.334L134.478 205.519L134.639 205.327ZM135.331 204.143C134.333 204.24 133.373 203.764 132.445 202.658L132.124 203.042C133.12 204.229 134.204 204.796 135.368 204.683L135.331 204.143ZM132.445 202.658C131.681 201.747 131.342 200.819 131.379 199.867L130.925 199.841C130.881 200.986 131.296 202.055 132.124 203.042L132.445 202.658ZM131.379 199.869C131.425 198.912 131.861 197.903 132.741 196.842L132.418 196.461C131.496 197.573 130.98 198.7 130.926 199.838L131.379 199.869ZM132.741 196.843L137.597 191.046L137.276 190.663L132.419 196.46L132.741 196.843ZM137.276 191.046L138.553 192.569L138.874 192.185L137.597 190.663L137.276 191.046ZM138.553 192.185L133.731 197.941L134.052 198.324L138.875 192.569L138.553 192.185ZM133.731 197.941C133.148 198.637 132.798 199.336 132.738 200.036C132.676 200.749 132.92 201.406 133.415 201.996L133.736 201.613C133.31 201.105 133.146 200.601 133.19 200.091C133.235 199.567 133.504 198.978 134.052 198.324L133.731 197.941ZM133.415 201.996C133.922 202.6 134.451 203.007 135.005 203.192C135.561 203.379 136.127 203.338 136.694 203.077L136.53 202.571C136.048 202.793 135.583 202.824 135.128 202.671C134.669 202.517 134.204 202.171 133.736 201.613L133.415 201.996ZM136.773 203.016L142.202 196.535L141.881 196.152L136.451 202.633L136.773 203.016ZM141.881 196.536L143.158 198.058L143.479 197.675L142.202 196.152L141.881 196.536ZM143.158 197.675L135.693 206.584L136.015 206.967L143.479 198.058L143.158 197.675ZM136.015 206.584L134.799 205.136L134.478 205.519L135.693 206.967L136.015 206.584ZM134.805 205.512L135.516 204.598L135.183 204.229L134.472 205.143L134.805 205.512ZM139.188 210.751L139.028 210.943L139.188 211.134L139.349 210.943L139.188 210.751ZM137.911 209.228L137.751 209.037L137.59 209.228L137.751 209.42L137.911 209.228ZM145.376 200.319L145.536 200.127L145.376 199.936L145.215 200.128L145.376 200.319ZM146.653 201.842L146.814 202.033L146.974 201.842L146.813 201.65L146.653 201.842ZM147.963 197.429L147.951 197.158L147.947 197.159L147.963 197.429ZM146.921 198.672L146.694 198.658L146.694 198.663L146.921 198.672ZM139.349 210.559L138.072 209.037L137.751 209.42L139.028 210.943L139.349 210.559ZM138.072 209.42L145.536 200.511L145.215 200.128L137.751 209.037L138.072 209.42ZM145.215 200.511L146.492 202.033L146.813 201.65L145.536 200.127L145.215 200.511ZM146.492 201.65L139.028 210.559L139.349 210.943L146.814 202.033L146.492 201.65ZM147.413 198.024C147.585 197.819 147.772 197.716 147.979 197.699L147.947 197.159C147.62 197.186 147.333 197.352 147.092 197.641L147.413 198.024ZM147.975 197.699C148.164 197.688 148.365 197.781 148.582 198.04L148.903 197.657C148.624 197.323 148.304 197.137 147.951 197.158L147.975 197.699ZM148.582 198.04C148.8 198.299 148.878 198.539 148.868 198.765L149.322 198.792C149.34 198.371 149.183 197.991 148.903 197.657L148.582 198.04ZM148.868 198.765C148.858 199.016 148.774 199.24 148.603 199.443L148.925 199.826C149.168 199.536 149.305 199.189 149.322 198.792L148.868 198.765ZM148.603 199.443C148.433 199.647 148.249 199.743 148.045 199.751L148.061 200.293C148.391 200.279 148.681 200.117 148.925 199.826L148.603 199.443ZM148.045 199.751C147.86 199.759 147.66 199.663 147.441 199.403L147.12 199.786C147.398 200.118 147.713 200.307 148.061 200.293L148.045 199.751ZM147.441 199.403C147.222 199.142 147.142 198.903 147.148 198.682L146.694 198.663C146.682 199.078 146.841 199.454 147.12 199.786L147.441 199.403ZM147.148 198.686C147.158 198.448 147.241 198.23 147.413 198.024L147.092 197.641C146.85 197.929 146.711 198.271 146.694 198.658L147.148 198.686ZM146.78 211.556L147.005 211.593L147.042 211.278L146.775 211.285L146.78 211.556ZM145.144 211.597L145.139 211.326L145.048 211.329L144.984 211.406L145.144 211.597ZM142.523 214.726L142.362 214.918L142.523 215.109L142.683 214.918L142.523 214.726ZM141.246 213.204L141.085 213.012L140.924 213.204L141.085 213.395L141.246 213.204ZM151.842 200.556L152.003 200.364L151.842 200.173L151.682 200.364L151.842 200.556ZM153.119 202.079L153.28 202.27L153.441 202.079L153.28 201.887L153.119 202.079ZM146.71 209.728L146.55 209.537L146.106 210.066L146.731 209.998L146.71 209.728ZM148.215 209.563L148.208 209.292L148.201 209.292L148.194 209.293L148.215 209.563ZM152.997 209.405L153.158 209.214L153.089 209.131L152.991 209.134L152.997 209.405ZM154.551 211.257L154.559 211.528L155.08 211.506L154.711 211.065L154.551 211.257ZM148.526 211.514L148.518 211.243L148.328 211.251L148.301 211.475L148.526 211.514ZM147.424 220.57L147.264 220.761L147.584 221.143L147.649 220.609L147.424 220.57ZM145.926 218.784L145.701 218.746L145.685 218.88L145.766 218.975L145.926 218.784ZM146.775 211.285L145.139 211.326L145.149 211.868L146.785 211.826L146.775 211.285ZM144.984 211.406L142.362 214.535L142.683 214.918L145.305 211.789L144.984 211.406ZM142.683 214.535L141.406 213.012L141.085 213.395L142.362 214.918L142.683 214.535ZM141.406 213.395L152.003 200.748L151.682 200.364L141.085 213.012L141.406 213.395ZM151.682 200.748L152.959 202.27L153.28 201.887L152.003 200.364L151.682 200.748ZM152.959 201.887L146.55 209.537L146.871 209.92L153.28 202.27L152.959 201.887ZM146.731 209.998L148.236 209.833L148.194 209.293L146.69 209.458L146.731 209.998ZM148.221 209.834L153.004 209.676L152.991 209.134L148.208 209.292L148.221 209.834ZM152.837 209.597L154.39 211.449L154.711 211.065L153.158 209.214L152.837 209.597ZM154.542 210.986L148.518 211.243L148.534 211.785L154.559 211.528L154.542 210.986ZM148.301 211.475L147.199 220.531L147.649 220.609L148.751 211.553L148.301 211.475ZM147.585 220.378L146.087 218.592L145.766 218.975L147.264 220.761L147.585 220.378ZM146.151 218.821L147.005 211.593L146.555 211.518L145.701 218.746L146.151 218.821Z" fill="black"/>
</g>
<defs>
<filter id="filter0_d" x="0.626892" y="0" width="356.591" height="281.609" filterUnits="userSpaceOnUse" color-interpolation-filters="sRGB">
<feFlood flood-opacity="0" result="BackgroundImageFix"/>
<feColorMatrix in="SourceAlpha" type="matrix" values="0 0 0 0 0 0 0 0 0 0 0 0 0 0 0 0 0 0 127 0"/>
<feOffset dx="10" dy="4"/>
<feGaussianBlur stdDeviation="2"/>
<feColorMatrix type="matrix" values="0 0 0 0 0 0 0 0 0 0 0 0 0 0 0 0 0 0 0.25 0"/>
<feBlend mode="normal" in2="BackgroundImageFix" result="effect1_dropShadow"/>
<feBlend mode="normal" in="SourceGraphic" in2="effect1_dropShadow" result="shape"/>
</filter>
<filter id="filter1_d" x="61.459" y="30.5" width="214.041" height="200.037" filterUnits="userSpaceOnUse" color-interpolation-filters="sRGB">
<feFlood flood-opacity="0" result="BackgroundImageFix"/>
<feColorMatrix in="SourceAlpha" type="matrix" values="0 0 0 0 0 0 0 0 0 0 0 0 0 0 0 0 0 0 127 0"/>
<feOffset dx="10" dy="4"/>
<feGaussianBlur stdDeviation="2"/>
<feColorMatrix type="matrix" values="0 0 0 0 0 0 0 0 0 0 0 0 0 0 0 0 0 0 0.25 0"/>
<feBlend mode="normal" in2="BackgroundImageFix" result="effect1_dropShadow"/>
<feBlend mode="normal" in="SourceGraphic" in2="effect1_dropShadow" result="shape"/>
</filter>
<filter id="filter2_d" x="191.193" y="183.518" width="47.7316" height="47.2316" filterUnits="userSpaceOnUse" color-interpolation-filters="sRGB">
<feFlood flood-opacity="0" result="BackgroundImageFix"/>
<feColorMatrix in="SourceAlpha" type="matrix" values="0 0 0 0 0 0 0 0 0 0 0 0 0 0 0 0 0 0 127 0"/>
<feOffset dx="10" dy="4"/>
<feGaussianBlur stdDeviation="2"/>
<feColorMatrix type="matrix" values="0 0 0 0 0 0 0 0 0 0 0 0 0 0 0 0 0 0 0.25 0"/>
<feBlend mode="normal" in2="BackgroundImageFix" result="effect1_dropShadow"/>
<feBlend mode="normal" in="SourceGraphic" in2="effect1_dropShadow" result="shape"/>
</filter>
<filter id="filter3_d" x="122.104" y="178.394" width="46.9762" height="50.749" filterUnits="userSpaceOnUse" color-interpolation-filters="sRGB">
<feFlood flood-opacity="0" result="BackgroundImageFix"/>
<feColorMatrix in="SourceAlpha" type="matrix" values="0 0 0 0 0 0 0 0 0 0 0 0 0 0 0 0 0 0 127 0"/>
<feOffset dx="10" dy="4"/>
<feGaussianBlur stdDeviation="2"/>
<feColorMatrix type="matrix" values="0 0 0 0 0 0 0 0 0 0 0 0 0 0 0 0 0 0 0.25 0"/>
<feBlend mode="normal" in2="BackgroundImageFix" result="effect1_dropShadow"/>
<feBlend mode="normal" in="SourceGraphic" in2="effect1_dropShadow" result="shape"/>
</filter>
</defs>
</svg>
